<svg width="338" height="31" viewBox="0 0 338 31" fill="none" xmlns="http://www.w3.org/2000/svg">
<path d="M4.62219 14.75H7.64619C8.76619 14.75 9.75019 14.598 10.5982 14.294C11.4462 13.974 12.1102 13.51 12.5902 12.902C13.0702 12.294 13.3102 11.566 13.3102 10.718C13.3102 9.75802 13.0702 8.96602 12.5902 8.34202C12.1102 7.71802 11.4462 7.25402 10.5982 6.95002C9.75019 6.63002 8.76619 6.47002 7.64619 6.47002H2.05419V23.27H8.00619C9.25419 23.27 10.3502 23.102 11.2942 22.766C12.2382 22.43 12.9662 21.91 13.4782 21.206C14.0062 20.502 14.2702 19.598 14.2702 18.494C14.2702 17.662 14.0942 16.95 13.7422 16.358C13.4062 15.766 12.9422 15.286 12.3502 14.918C11.7582 14.534 11.0862 14.254 10.3342 14.078C9.59819 13.902 8.82219 13.814 8.00619 13.814H4.62219V15.686H7.69419C8.12619 15.686 8.52619 15.734 8.89419 15.83C9.26219 15.91 9.58219 16.054 9.85419 16.262C10.1422 16.454 10.3582 16.702 10.5022 17.006C10.6622 17.294 10.7422 17.646 10.7422 18.062C10.7422 18.638 10.6062 19.11 10.3342 19.478C10.0782 19.846 9.71819 20.118 9.25419 20.294C8.79019 20.454 8.27019 20.534 7.69419 20.534H5.48619V9.20602H7.33419C8.08619 9.20602 8.67819 9.37402 9.11019 9.71002C9.55819 10.046 9.78219 10.534 9.78219 11.174C9.78219 11.59 9.67819 11.95 9.47019 12.254C9.27819 12.558 8.99819 12.79 8.63019 12.95C8.26219 13.11 7.83019 13.19 7.33419 13.19H4.62219V14.75ZM19.9548 12.23H16.9068V23.27H19.9548V12.23ZM23.1948 15.47L24.6108 12.83C24.3868 12.542 24.0908 12.326 23.7228 12.182C23.3708 12.038 22.9948 11.966 22.5948 11.966C22.0188 11.966 21.4588 12.174 20.9148 12.59C20.3708 12.99 19.9308 13.534 19.5948 14.222C19.2588 14.894 19.0908 15.67 19.0908 16.55L19.9548 17.414C19.9548 16.886 20.0188 16.438 20.1468 16.07C20.2908 15.686 20.4988 15.39 20.7708 15.182C21.0428 14.974 21.3708 14.87 21.7548 14.87C22.0748 14.87 22.3388 14.926 22.5468 15.038C22.7708 15.134 22.9868 15.278 23.1948 15.47ZM25.1628 17.75C25.1628 18.886 25.4268 19.894 25.9548 20.774C26.4988 21.638 27.2268 22.31 28.1388 22.79C29.0668 23.27 30.1148 23.51 31.2828 23.51C32.4508 23.51 33.4908 23.27 34.4028 22.79C35.3308 22.31 36.0588 21.638 36.5868 20.774C37.1308 19.894 37.4028 18.886 37.4028 17.75C37.4028 16.598 37.1308 15.59 36.5868 14.726C36.0588 13.862 35.3308 13.19 34.4028 12.71C33.4908 12.23 32.4508 11.99 31.2828 11.99C30.1148 11.99 29.0668 12.23 28.1388 12.71C27.2268 13.19 26.4988 13.862 25.9548 14.726C25.4268 15.59 25.1628 16.598 25.1628 17.75ZM28.3308 17.75C28.3308 17.126 28.4588 16.574 28.7148 16.094C28.9868 15.614 29.3468 15.246 29.7948 14.99C30.2428 14.734 30.7388 14.606 31.2828 14.606C31.8268 14.606 32.3228 14.734 32.7708 14.99C33.2188 15.246 33.5708 15.614 33.8268 16.094C34.0988 16.574 34.2348 17.126 34.2348 17.75C34.2348 18.374 34.0988 18.926 33.8268 19.406C33.5708 19.87 33.2188 20.238 32.7708 20.51C32.3228 20.766 31.8268 20.894 31.2828 20.894C30.7388 20.894 30.2428 20.766 29.7948 20.51C29.3468 20.238 28.9868 19.87 28.7148 19.406C28.4588 18.926 28.3308 18.374 28.3308 17.75ZM38.9909 17.75C38.9909 18.886 39.2549 19.894 39.7829 20.774C40.3269 21.638 41.0549 22.31 41.9669 22.79C42.8949 23.27 43.9429 23.51 45.1109 23.51C46.2789 23.51 47.3189 23.27 48.2309 22.79C49.1589 22.31 49.8869 21.638 50.4149 20.774C50.9589 19.894 51.2309 18.886 51.2309 17.75C51.2309 16.598 50.9589 15.59 50.4149 14.726C49.8869 13.862 49.1589 13.19 48.2309 12.71C47.3189 12.23 46.2789 11.99 45.1109 11.99C43.9429 11.99 42.8949 12.23 41.9669 12.71C41.0549 13.19 40.3269 13.862 39.7829 14.726C39.2549 15.59 38.9909 16.598 38.9909 17.75ZM42.1589 17.75C42.1589 17.126 42.2869 16.574 42.5429 16.094C42.8149 15.614 43.1749 15.246 43.6229 14.99C44.0709 14.734 44.5669 14.606 45.1109 14.606C45.6549 14.606 46.1509 14.734 46.5989 14.99C47.0469 15.246 47.3989 15.614 47.6549 16.094C47.9269 16.574 48.0629 17.126 48.0629 17.75C48.0629 18.374 47.9269 18.926 47.6549 19.406C47.3989 19.87 47.0469 20.238 46.5989 20.51C46.1509 20.766 45.6549 20.894 45.1109 20.894C44.5669 20.894 44.0709 20.766 43.6229 20.51C43.1749 20.238 42.8149 19.87 42.5429 19.406C42.2869 18.926 42.1589 18.374 42.1589 17.75ZM53.4911 4.55002V23.27H56.4911V4.55002H53.4911ZM60.5471 12.23L55.7951 16.79L61.0511 23.27H64.7471L59.5151 16.79L64.2671 12.23H60.5471ZM66.3834 4.55002V23.27H69.5034V4.55002H66.3834ZM83.0829 12.23H79.8429L76.3629 20.966L77.8989 21.014L74.3469 12.23H70.8909L75.4749 22.166L72.6909 28.55H75.8829L83.0829 12.23ZM91.6051 16.55V23.27H94.8211V16.214C94.8211 14.886 94.5011 13.854 93.8611 13.118C93.2211 12.366 92.2451 11.99 90.9331 11.99C90.1491 11.99 89.4771 12.158 88.9171 12.494C88.3731 12.814 87.9331 13.286 87.5971 13.91V12.23H84.4771V23.27H87.5971V16.55C87.5971 16.086 87.6851 15.686 87.8611 15.35C88.0371 15.014 88.2931 14.758 88.6291 14.582C88.9651 14.39 89.3491 14.294 89.7811 14.294C90.4211 14.294 90.8851 14.486 91.1731 14.87C91.4611 15.254 91.6051 15.814 91.6051 16.55ZM106.831 17.63L104.383 19.358C104.751 20.142 105.263 20.87 105.919 21.542C106.575 22.214 107.343 22.75 108.223 23.15C109.119 23.534 110.079 23.726 111.103 23.726C111.871 23.726 112.599 23.606 113.287 23.366C113.991 23.142 114.623 22.814 115.183 22.382C115.743 21.934 116.183 21.39 116.503 20.75C116.823 20.11 116.983 19.382 116.983 18.566C116.983 17.846 116.863 17.214 116.623 16.67C116.399 16.11 116.079 15.63 115.663 15.23C115.263 14.814 114.807 14.462 114.295 14.174C113.799 13.886 113.279 13.646 112.735 13.454C111.887 13.166 111.183 12.886 110.623 12.614C110.063 12.326 109.647 12.03 109.375 11.726C109.103 11.406 108.967 11.038 108.967 10.622C108.967 10.206 109.135 9.84602 109.471 9.54202C109.807 9.22202 110.311 9.06202 110.983 9.06202C111.495 9.06202 111.951 9.16602 112.351 9.37402C112.751 9.56602 113.103 9.83002 113.407 10.166C113.727 10.486 113.999 10.846 114.223 11.246L116.911 9.75802C116.623 9.16602 116.215 8.59802 115.687 8.05402C115.175 7.49402 114.527 7.03802 113.743 6.68602C112.975 6.31802 112.055 6.13402 110.983 6.13402C109.943 6.13402 108.999 6.32602 108.151 6.71002C107.319 7.07802 106.655 7.61402 106.159 8.31802C105.679 9.00602 105.439 9.83002 105.439 10.79C105.439 11.59 105.591 12.278 105.895 12.854C106.199 13.414 106.583 13.894 107.047 14.294C107.511 14.678 107.999 14.998 108.511 15.254C109.039 15.494 109.503 15.686 109.903 15.83C110.655 16.118 111.287 16.39 111.799 16.646C112.327 16.886 112.719 17.166 112.975 17.486C113.247 17.806 113.383 18.23 113.383 18.758C113.383 19.366 113.167 19.846 112.735 20.198C112.303 20.55 111.743 20.726 111.055 20.726C110.463 20.726 109.911 20.598 109.399 20.342C108.887 20.086 108.415 19.726 107.983 19.262C107.567 18.798 107.183 18.254 106.831 17.63ZM119.349 7.95802C119.349 8.45402 119.533 8.87002 119.901 9.20602C120.269 9.54202 120.709 9.71002 121.221 9.71002C121.733 9.71002 122.165 9.54202 122.517 9.20602C122.885 8.87002 123.069 8.45402 123.069 7.95802C123.069 7.44602 122.885 7.03002 122.517 6.71002C122.165 6.37402 121.733 6.20602 121.221 6.20602C120.709 6.20602 120.269 6.37402 119.901 6.71002C119.533 7.03002 119.349 7.44602 119.349 7.95802ZM119.685 12.23V23.27H122.709V12.23H119.685ZM142.328 16.214C142.328 15.318 142.2 14.558 141.944 13.934C141.704 13.294 141.328 12.814 140.816 12.494C140.304 12.158 139.64 11.99 138.824 11.99C138.072 11.99 137.4 12.15 136.808 12.47C136.232 12.79 135.744 13.262 135.344 13.886C135.104 13.262 134.72 12.79 134.192 12.47C133.664 12.15 132.992 11.99 132.176 11.99C131.44 11.99 130.808 12.15 130.28 12.47C129.752 12.79 129.328 13.254 129.008 13.862V12.23H126.008V23.27H129.008V16.55C129.008 16.07 129.088 15.662 129.248 15.326C129.408 14.974 129.632 14.718 129.92 14.558C130.208 14.382 130.544 14.294 130.928 14.294C131.504 14.294 131.92 14.486 132.176 14.87C132.432 15.238 132.56 15.798 132.56 16.55V23.27H135.656V16.55C135.656 16.07 135.736 15.662 135.896 15.326C136.056 14.974 136.28 14.718 136.568 14.558C136.856 14.382 137.192 14.294 137.576 14.294C138.152 14.294 138.568 14.486 138.824 14.87C139.08 15.238 139.208 15.798 139.208 16.55V23.27H142.328V16.214ZM161.711 16.214C161.711 15.318 161.583 14.558 161.327 13.934C161.087 13.294 160.711 12.814 160.199 12.494C159.687 12.158 159.023 11.99 158.207 11.99C157.455 11.99 156.783 12.15 156.191 12.47C155.615 12.79 155.127 13.262 154.727 13.886C154.487 13.262 154.103 12.79 153.575 12.47C153.047 12.15 152.375 11.99 151.559 11.99C150.823 11.99 150.191 12.15 149.663 12.47C149.135 12.79 148.711 13.254 148.391 13.862V12.23H145.391V23.27H148.391V16.55C148.391 16.07 148.471 15.662 148.631 15.326C148.791 14.974 149.015 14.718 149.303 14.558C149.591 14.382 149.927 14.294 150.311 14.294C150.887 14.294 151.303 14.486 151.559 14.87C151.815 15.238 151.943 15.798 151.943 16.55V23.27H155.039V16.55C155.039 16.07 155.119 15.662 155.279 15.326C155.439 14.974 155.663 14.718 155.951 14.558C156.239 14.382 156.575 14.294 156.959 14.294C157.535 14.294 157.951 14.486 158.207 14.87C158.463 15.238 158.591 15.798 158.591 16.55V23.27H161.711V16.214ZM164.03 17.75C164.03 18.886 164.294 19.894 164.822 20.774C165.366 21.638 166.094 22.31 167.006 22.79C167.934 23.27 168.982 23.51 170.15 23.51C171.318 23.51 172.358 23.27 173.27 22.79C174.198 22.31 174.926 21.638 175.454 20.774C175.998 19.894 176.27 18.886 176.27 17.75C176.27 16.598 175.998 15.59 175.454 14.726C174.926 13.862 174.198 13.19 173.27 12.71C172.358 12.23 171.318 11.99 170.15 11.99C168.982 11.99 167.934 12.23 167.006 12.71C166.094 13.19 165.366 13.862 164.822 14.726C164.294 15.59 164.03 16.598 164.03 17.75ZM167.198 17.75C167.198 17.126 167.326 16.574 167.582 16.094C167.854 15.614 168.214 15.246 168.662 14.99C169.11 14.734 169.606 14.606 170.15 14.606C170.694 14.606 171.19 14.734 171.638 14.99C172.086 15.246 172.438 15.614 172.694 16.094C172.966 16.574 173.102 17.126 173.102 17.75C173.102 18.374 172.966 18.926 172.694 19.406C172.438 19.87 172.086 20.238 171.638 20.51C171.19 20.766 170.694 20.894 170.15 20.894C169.606 20.894 169.11 20.766 168.662 20.51C168.214 20.238 167.854 19.87 167.582 19.406C167.326 18.926 167.198 18.374 167.198 17.75ZM185.73 16.55V23.27H188.946V16.214C188.946 14.886 188.626 13.854 187.986 13.118C187.346 12.366 186.37 11.99 185.058 11.99C184.274 11.99 183.602 12.158 183.042 12.494C182.498 12.814 182.058 13.286 181.722 13.91V12.23H178.602V23.27H181.722V16.55C181.722 16.086 181.81 15.686 181.986 15.35C182.162 15.014 182.418 14.758 182.754 14.582C183.09 14.39 183.474 14.294 183.906 14.294C184.546 14.294 185.01 14.486 185.298 14.87C185.586 15.254 185.73 15.814 185.73 16.55ZM192.56 19.454L191.048 21.398C191.464 21.798 191.928 22.174 192.44 22.526C192.968 22.862 193.552 23.134 194.192 23.342C194.848 23.55 195.568 23.654 196.352 23.654C197.616 23.654 198.608 23.35 199.328 22.742C200.048 22.118 200.408 21.254 200.408 20.15C200.408 19.478 200.256 18.934 199.952 18.518C199.648 18.102 199.24 17.758 198.728 17.486C198.232 17.198 197.688 16.942 197.096 16.718C196.616 16.51 196.184 16.334 195.8 16.19C195.432 16.046 195.144 15.886 194.936 15.71C194.744 15.518 194.648 15.302 194.648 15.062C194.648 14.79 194.744 14.59 194.936 14.462C195.144 14.318 195.424 14.246 195.776 14.246C196.304 14.246 196.84 14.382 197.384 14.654C197.944 14.926 198.424 15.278 198.824 15.71L200.192 13.79C199.84 13.438 199.432 13.134 198.968 12.878C198.504 12.606 198 12.39 197.456 12.23C196.912 12.07 196.328 11.99 195.704 11.99C194.968 11.99 194.296 12.11 193.688 12.35C193.096 12.574 192.624 12.918 192.272 13.382C191.92 13.83 191.744 14.382 191.744 15.038C191.744 15.726 191.896 16.294 192.2 16.742C192.52 17.174 192.92 17.526 193.4 17.798C193.88 18.054 194.376 18.278 194.888 18.47C195.432 18.646 195.88 18.814 196.232 18.974C196.584 19.134 196.848 19.318 197.024 19.526C197.216 19.718 197.312 19.958 197.312 20.246C197.312 20.566 197.2 20.822 196.976 21.014C196.752 21.19 196.432 21.278 196.016 21.278C195.696 21.278 195.352 21.214 194.984 21.086C194.632 20.958 194.256 20.766 193.856 20.51C193.456 20.238 193.024 19.886 192.56 19.454Z" fill="#1B1B1D"/>
<path d="M239.177 12.449C239.048 12.071 238.707 11.804 238.309 11.773L232.608 11.32L230.141 5.85902C229.98 5.50002 229.623 5.27002 229.23 5.27002C228.837 5.27002 228.48 5.50002 228.319 5.85802L225.852 11.32L220.151 11.773C219.76 11.804 219.423 12.061 219.29 12.43C219.157 12.799 219.251 13.212 219.532 13.486L223.745 17.593L222.255 24.045C222.163 24.444 222.324 24.859 222.661 25.092C222.833 25.21 223.031 25.27 223.23 25.27C223.423 25.27 223.617 25.214 223.785 25.102L229.23 21.472L234.675 25.102C235.023 25.334 235.48 25.325 235.82 25.078C236.158 24.831 236.307 24.398 236.192 23.996L234.363 17.596L238.899 13.514C239.196 13.246 239.305 12.828 239.177 12.449Z" fill="#FFB700"/>
<path d="M263.177 12.449C263.048 12.071 262.707 11.804 262.309 11.773L256.608 11.32L254.141 5.85902C253.98 5.50002 253.623 5.27002 253.23 5.27002C252.837 5.27002 252.48 5.50002 252.319 5.85802L249.852 11.32L244.151 11.773C243.76 11.804 243.423 12.061 243.29 12.43C243.157 12.799 243.251 13.212 243.532 13.486L247.745 17.593L246.255 24.045C246.163 24.444 246.324 24.859 246.661 25.092C246.833 25.21 247.031 25.27 247.23 25.27C247.423 25.27 247.617 25.214 247.785 25.102L253.23 21.472L258.675 25.102C259.023 25.334 259.48 25.325 259.82 25.078C260.158 24.831 260.307 24.398 260.192 23.996L258.363 17.596L262.899 13.514C263.196 13.246 263.305 12.828 263.177 12.449Z" fill="#FFB700"/>
<path d="M287.177 12.449C287.048 12.071 286.707 11.804 286.309 11.773L280.608 11.32L278.141 5.85902C277.98 5.50002 277.623 5.27002 277.23 5.27002C276.837 5.27002 276.48 5.50002 276.319 5.85802L273.852 11.32L268.151 11.773C267.76 11.804 267.423 12.061 267.29 12.43C267.157 12.799 267.251 13.212 267.532 13.486L271.745 17.593L270.255 24.045C270.163 24.444 270.324 24.859 270.661 25.092C270.833 25.21 271.031 25.27 271.23 25.27C271.423 25.27 271.617 25.214 271.785 25.102L277.23 21.472L282.675 25.102C283.023 25.334 283.48 25.325 283.82 25.078C284.158 24.831 284.307 24.398 284.192 23.996L282.363 17.596L286.899 13.514C287.196 13.246 287.305 12.828 287.177 12.449Z" fill="#FFB700"/>
<path d="M311.177 12.449C311.048 12.071 310.707 11.804 310.309 11.773L304.608 11.32L302.141 5.85902C301.98 5.50002 301.623 5.27002 301.23 5.27002C300.837 5.27002 300.48 5.50002 300.319 5.85802L297.852 11.32L292.151 11.773C291.76 11.804 291.423 12.061 291.29 12.43C291.157 12.799 291.251 13.212 291.532 13.486L295.745 17.593L294.255 24.045C294.163 24.444 294.324 24.859 294.661 25.092C294.833 25.21 295.031 25.27 295.23 25.27C295.423 25.27 295.617 25.214 295.785 25.102L301.23 21.472L306.675 25.102C307.023 25.334 307.48 25.325 307.82 25.078C308.158 24.831 308.307 24.398 308.192 23.996L306.363 17.596L310.899 13.514C311.196 13.246 311.305 12.828 311.177 12.449Z" fill="#FFB700"/>
<path d="M335.177 12.449C335.048 12.071 334.707 11.804 334.309 11.773L328.608 11.32L326.141 5.85902C325.98 5.50002 325.623 5.27002 325.23 5.27002C324.837 5.27002 324.48 5.50002 324.319 5.85802L321.852 11.32L316.151 11.773C315.76 11.804 315.423 12.061 315.29 12.43C315.157 12.799 315.251 13.212 315.532 13.486L319.745 17.593L318.255 24.045C318.163 24.444 318.324 24.859 318.661 25.092C318.833 25.21 319.031 25.27 319.23 25.27C319.423 25.27 319.617 25.214 319.785 25.102L325.23 21.472L330.675 25.102C331.023 25.334 331.48 25.325 331.82 25.078C332.158 24.831 332.307 24.398 332.192 23.996L330.363 17.596L334.899 13.514C335.196 13.246 335.305 12.828 335.177 12.449Z" fill="#FFB700"/>
</svg>
