<svg width="268" height="31" viewBox="0 0 268 31" fill="none" xmlns="http://www.w3.org/2000/svg">
<path d="M2.51106 6.47002V23.27H5.99106V6.47002H2.51106ZM25.6446 16.214C25.6446 15.318 25.5166 14.558 25.2606 13.934C25.0206 13.294 24.6446 12.814 24.1326 12.494C23.6206 12.158 22.9566 11.99 22.1406 11.99C21.3886 11.99 20.7166 12.15 20.1246 12.47C19.5486 12.79 19.0606 13.262 18.6606 13.886C18.4206 13.262 18.0366 12.79 17.5086 12.47C16.9806 12.15 16.3086 11.99 15.4926 11.99C14.7566 11.99 14.1246 12.15 13.5966 12.47C13.0686 12.79 12.6446 13.254 12.3246 13.862V12.23H9.32462V23.27H12.3246V16.55C12.3246 16.07 12.4046 15.662 12.5646 15.326C12.7246 14.974 12.9486 14.718 13.2366 14.558C13.5246 14.382 13.8606 14.294 14.2446 14.294C14.8206 14.294 15.2366 14.486 15.4926 14.87C15.7486 15.238 15.8766 15.798 15.8766 16.55V23.27H18.9726V16.55C18.9726 16.07 19.0526 15.662 19.2126 15.326C19.3726 14.974 19.5966 14.718 19.8846 14.558C20.1726 14.382 20.5086 14.294 20.8926 14.294C21.4686 14.294 21.8846 14.486 22.1406 14.87C22.3966 15.238 22.5246 15.798 22.5246 16.55V23.27H25.6446V16.214ZM30.9154 19.838C30.9154 19.518 30.9874 19.254 31.1314 19.046C31.2754 18.822 31.4994 18.654 31.8034 18.542C32.1074 18.414 32.4994 18.35 32.9794 18.35C33.5714 18.35 34.1314 18.43 34.6594 18.59C35.2034 18.75 35.6914 18.99 36.1234 19.31V17.87C35.9634 17.678 35.6994 17.478 35.3314 17.27C34.9634 17.062 34.5074 16.886 33.9634 16.742C33.4354 16.598 32.8194 16.526 32.1154 16.526C30.7394 16.526 29.6754 16.838 28.9234 17.462C28.1714 18.086 27.7954 18.934 27.7954 20.006C27.7954 20.758 27.9714 21.398 28.3234 21.926C28.6914 22.438 29.1714 22.83 29.7634 23.102C30.3554 23.374 30.9954 23.51 31.6834 23.51C32.3554 23.51 32.9954 23.39 33.6034 23.15C34.2274 22.91 34.7314 22.55 35.1154 22.07C35.5154 21.59 35.7154 20.998 35.7154 20.294L35.3314 18.854C35.3314 19.382 35.2114 19.838 34.9714 20.222C34.7314 20.59 34.4194 20.878 34.0354 21.086C33.6514 21.278 33.2194 21.374 32.7394 21.374C32.4034 21.374 32.0914 21.318 31.8034 21.206C31.5314 21.078 31.3154 20.902 31.1554 20.678C30.9954 20.438 30.9154 20.158 30.9154 19.838ZM29.7154 15.35C29.8754 15.238 30.1234 15.102 30.4594 14.942C30.7954 14.782 31.1954 14.646 31.6594 14.534C32.1234 14.422 32.6114 14.366 33.1234 14.366C33.4594 14.366 33.7634 14.398 34.0354 14.462C34.3074 14.526 34.5394 14.63 34.7314 14.774C34.9394 14.918 35.0914 15.102 35.1874 15.326C35.2834 15.534 35.3314 15.79 35.3314 16.094V23.27H38.3314V15.446C38.3314 14.694 38.1234 14.062 37.7074 13.55C37.2914 13.022 36.7154 12.622 35.9794 12.35C35.2434 12.078 34.4034 11.942 33.4594 11.942C32.4354 11.942 31.5074 12.086 30.6754 12.374C29.8434 12.646 29.1394 12.934 28.5634 13.238L29.7154 15.35ZM57.5431 16.214C57.5431 15.318 57.4151 14.558 57.1591 13.934C56.9191 13.294 56.5431 12.814 56.0311 12.494C55.5191 12.158 54.8551 11.99 54.0391 11.99C53.2871 11.99 52.6151 12.15 52.0231 12.47C51.4471 12.79 50.9591 13.262 50.5591 13.886C50.3191 13.262 49.9351 12.79 49.4071 12.47C48.8791 12.15 48.2071 11.99 47.3911 11.99C46.6551 11.99 46.0231 12.15 45.4951 12.47C44.9671 12.79 44.5431 13.254 44.2231 13.862V12.23H41.2231V23.27H44.2231V16.55C44.2231 16.07 44.3031 15.662 44.4631 15.326C44.6231 14.974 44.8471 14.718 45.1351 14.558C45.4231 14.382 45.7591 14.294 46.1431 14.294C46.7191 14.294 47.1351 14.486 47.3911 14.87C47.6471 15.238 47.7751 15.798 47.7751 16.55V23.27H50.8711V16.55C50.8711 16.07 50.9511 15.662 51.1111 15.326C51.2711 14.974 51.4951 14.718 51.7831 14.558C52.0711 14.382 52.4071 14.294 52.7911 14.294C53.3671 14.294 53.7831 14.486 54.0391 14.87C54.2951 15.238 54.4231 15.798 54.4231 16.55V23.27H57.5431V16.214ZM83.4972 16.91L78.7692 5.63002L74.0892 16.91L70.4412 6.47002H66.4092L73.4652 24.206L78.7692 13.166L84.0492 24.206L91.1292 6.47002H87.0972L83.4972 16.91ZM95.9056 4.55002H92.7856V23.27H95.9056V4.55002ZM99.9136 16.55V23.27H103.034V16.094C103.034 15.182 102.898 14.414 102.626 13.79C102.354 13.15 101.938 12.67 101.378 12.35C100.818 12.03 100.106 11.87 99.2416 11.87C98.3776 11.87 97.6496 12.078 97.0576 12.494C96.4656 12.91 96.0176 13.47 95.7136 14.174C95.4256 14.878 95.2816 15.67 95.2816 16.55H95.9056C95.9056 16.086 95.9936 15.686 96.1696 15.35C96.3456 15.014 96.6016 14.758 96.9376 14.582C97.2736 14.39 97.6576 14.294 98.0896 14.294C98.7456 14.294 99.2096 14.486 99.4816 14.87C99.7696 15.254 99.9136 15.814 99.9136 16.55ZM105.954 7.95802C105.954 8.45402 106.138 8.87002 106.506 9.20602C106.874 9.54202 107.314 9.71002 107.826 9.71002C108.338 9.71002 108.77 9.54202 109.122 9.20602C109.49 8.87002 109.674 8.45402 109.674 7.95802C109.674 7.44602 109.49 7.03002 109.122 6.71002C108.77 6.37402 108.338 6.20602 107.826 6.20602C107.314 6.20602 106.874 6.37402 106.506 6.71002C106.138 7.03002 105.954 7.44602 105.954 7.95802ZM106.29 12.23V23.27H109.314V12.23H106.29ZM111.198 12.23V14.846H118.014V12.23H111.198ZM113.094 8.39002V23.27H116.094V8.39002H113.094ZM124.876 23.51C126.204 23.51 127.34 23.254 128.284 22.742C129.244 22.214 130.012 21.43 130.588 20.39L127.876 19.55C127.556 20.078 127.148 20.478 126.652 20.75C126.172 21.006 125.588 21.134 124.9 21.134C124.292 21.134 123.772 20.998 123.34 20.726C122.908 20.454 122.58 20.062 122.356 19.55C122.148 19.038 122.044 18.414 122.044 17.678C122.06 16.91 122.172 16.27 122.38 15.758C122.604 15.23 122.916 14.838 123.316 14.582C123.732 14.31 124.244 14.174 124.852 14.174C125.348 14.174 125.78 14.286 126.148 14.51C126.516 14.734 126.796 15.038 126.988 15.422C127.196 15.806 127.3 16.27 127.3 16.814C127.3 16.926 127.268 17.07 127.204 17.246C127.156 17.406 127.1 17.534 127.036 17.63L127.876 16.526H120.7V18.446H130.588C130.604 18.35 130.612 18.222 130.612 18.062C130.628 17.902 130.636 17.75 130.636 17.606C130.636 16.422 130.412 15.414 129.964 14.582C129.516 13.734 128.86 13.094 127.996 12.662C127.148 12.214 126.116 11.99 124.9 11.99C123.684 11.99 122.628 12.23 121.732 12.71C120.836 13.174 120.14 13.838 119.644 14.702C119.164 15.55 118.924 16.566 118.924 17.75C118.924 18.918 119.164 19.934 119.644 20.798C120.14 21.646 120.836 22.31 121.732 22.79C122.628 23.27 123.676 23.51 124.876 23.51Z" fill="#1B1B1D"/>
<path d="M169.634 12.449C169.505 12.071 169.164 11.804 168.766 11.773L163.065 11.32L160.598 5.85902C160.437 5.50002 160.08 5.27002 159.687 5.27002C159.294 5.27002 158.937 5.50002 158.776 5.85802L156.309 11.32L150.608 11.773C150.217 11.804 149.88 12.061 149.747 12.43C149.614 12.799 149.708 13.212 149.989 13.486L154.202 17.593L152.712 24.045C152.62 24.444 152.781 24.859 153.118 25.092C153.29 25.21 153.488 25.27 153.687 25.27C153.88 25.27 154.074 25.214 154.242 25.102L159.687 21.472L165.132 25.102C165.48 25.334 165.937 25.325 166.277 25.078C166.615 24.831 166.764 24.398 166.649 23.996L164.82 17.596L169.356 13.514C169.653 13.246 169.762 12.828 169.634 12.449Z" fill="#FFB700"/>
<path d="M193.634 12.449C193.505 12.071 193.164 11.804 192.766 11.773L187.065 11.32L184.598 5.85902C184.437 5.50002 184.08 5.27002 183.687 5.27002C183.294 5.27002 182.937 5.50002 182.776 5.85802L180.309 11.32L174.608 11.773C174.217 11.804 173.88 12.061 173.747 12.43C173.614 12.799 173.708 13.212 173.989 13.486L178.202 17.593L176.712 24.045C176.62 24.444 176.781 24.859 177.118 25.092C177.29 25.21 177.488 25.27 177.687 25.27C177.88 25.27 178.074 25.214 178.242 25.102L183.687 21.472L189.132 25.102C189.48 25.334 189.937 25.325 190.277 25.078C190.615 24.831 190.764 24.398 190.649 23.996L188.82 17.596L193.356 13.514C193.653 13.246 193.762 12.828 193.634 12.449Z" fill="#FFB700"/>
<path d="M217.634 12.449C217.505 12.071 217.164 11.804 216.766 11.773L211.065 11.32L208.598 5.85902C208.437 5.50002 208.08 5.27002 207.687 5.27002C207.294 5.27002 206.937 5.50002 206.776 5.85802L204.309 11.32L198.608 11.773C198.217 11.804 197.88 12.061 197.747 12.43C197.614 12.799 197.708 13.212 197.989 13.486L202.202 17.593L200.712 24.045C200.62 24.444 200.781 24.859 201.118 25.092C201.29 25.21 201.488 25.27 201.687 25.27C201.88 25.27 202.074 25.214 202.242 25.102L207.687 21.472L213.132 25.102C213.48 25.334 213.937 25.325 214.277 25.078C214.615 24.831 214.764 24.398 214.649 23.996L212.82 17.596L217.356 13.514C217.653 13.246 217.762 12.828 217.634 12.449Z" fill="#FFB700"/>
<path d="M241.634 12.449C241.505 12.071 241.164 11.804 240.766 11.773L235.065 11.32L232.598 5.85902C232.437 5.50002 232.08 5.27002 231.687 5.27002C231.294 5.27002 230.937 5.50002 230.776 5.85802L228.309 11.32L222.608 11.773C222.217 11.804 221.88 12.061 221.747 12.43C221.614 12.799 221.708 13.212 221.989 13.486L226.202 17.593L224.712 24.045C224.62 24.444 224.781 24.859 225.118 25.092C225.29 25.21 225.488 25.27 225.687 25.27C225.88 25.27 226.074 25.214 226.242 25.102L231.687 21.472L237.132 25.102C237.48 25.334 237.937 25.325 238.277 25.078C238.615 24.831 238.764 24.398 238.649 23.996L236.82 17.596L241.356 13.514C241.653 13.246 241.762 12.828 241.634 12.449Z" fill="#FFB700"/>
<path d="M265.634 12.449C265.505 12.071 265.164 11.804 264.766 11.773L259.065 11.32L256.598 5.85902C256.437 5.50002 256.08 5.27002 255.687 5.27002C255.294 5.27002 254.937 5.50002 254.776 5.85802L252.309 11.32L246.608 11.773C246.217 11.804 245.88 12.061 245.747 12.43C245.614 12.799 245.708 13.212 245.989 13.486L250.202 17.593L248.712 24.045C248.62 24.444 248.781 24.859 249.118 25.092C249.29 25.21 249.488 25.27 249.687 25.27C249.88 25.27 250.074 25.214 250.242 25.102L255.687 21.472L261.132 25.102C261.48 25.334 261.937 25.325 262.277 25.078C262.615 24.831 262.764 24.398 262.649 23.996L260.82 17.596L265.356 13.514C265.653 13.246 265.762 12.828 265.634 12.449Z" fill="#FFB700"/>
</svg>
